<?xml version="1.0"?><svg width="350" height="150" xmlns="http://www.w3.org/2000/svg">
 <title>tug</title>
 <g>
  <title>Layer 1</title>


  <path fill="none" stroke="#000000" stroke-width="0.1" stroke-miterlimit="10" d="m300.414978,35.604668c-5.813965,-0.757 -11.844971,1.195999 -16.398987,4.834999c-4.839966,3.925003 -7.367981,10.081001 -7.971008,16.18c0.278015,6.198002 2.786987,12.497993 7.517029,16.626999c5.786011,5.022995 14.336975,6.813995 21.529968,3.984001c9.458008,-3.230003 15.666016,-13.896 13.863037,-23.744999c-1.570007,-9.167 -9.312012,-16.722 -18.540039,-17.881001z" id="svg_19"/>
  <path d="m300.414978,35.604668c-5.813965,-0.757 -11.844971,1.195999 -16.398987,4.834999c-4.839966,3.925003 -7.367981,10.081001 -7.971008,16.18c0.278015,6.198002 2.786987,12.497993 7.517029,16.626999c5.786011,5.022995 14.336975,6.813995 21.529968,3.984001c9.458008,-3.230003 15.666016,-13.896 13.863037,-23.744999c-1.570007,-9.167 -9.312012,-16.722 -18.540039,-17.881001z" id="svg_20"/>
  <path fill="none" stroke="#000000" stroke-width="0.1" stroke-miterlimit="10" d="m157.924988,35.610668c-8.182983,-1.02 -16.972992,3.071999 -21.075989,10.338001c-3.023987,5.251999 -4.355988,11.771 -2.05899,17.560997c3.067993,11.081001 16.069,17.823997 26.863007,14.032997c9.905975,-2.868996 16.606995,-13.796997 14.800995,-23.956997c-1.537018,-9.196999 -9.277008,-16.801998 -18.529022,-17.974998z" id="svg_21"/>
  <path fill="black" d="m157.924988,35.610668c-8.182983,-1.02 -16.972992,3.071999 -21.075989,10.338001c-3.023987,5.251999 -4.355988,11.771 -2.05899,17.560997c3.067993,11.081001 16.069,17.823997 26.863007,14.032997c9.905975,-2.868996 16.606995,-13.796997 14.800995,-23.956997c-1.537018,-9.196999 -9.277008,-16.801998 -18.529022,-17.974998z" id="svg_22"/>
  <path fill="none" stroke="#000000" stroke-width="0.1" stroke-miterlimit="10" d="m325.241028,93.638664c0.184998,-6.459 -7.933044,-10.279999 -13.285034,-8.193001c-7.486023,5.790001 -12.77002,13.877998 -19.210999,20.740997c-1.961975,1.821007 -3.426025,5.163002 -6.542969,4.854004c-10.493042,0.099998 -20.991028,-0.142998 -31.482056,0.106003c6.313049,-1.717003 11.960022,-5.162003 17.666016,-8.262001c4.122986,-2.261002 8.598022,-5.938004 8.17804,-11.174004c0.037964,-4.385002 -4.02301,-8.020996 -8.341003,-7.618996c-5.595032,0.698997 -10.636047,3.409996 -15.549011,6.011993c-11.184998,6.166 -22.11499,12.809006 -33.580994,18.453003c-2.715027,1.293999 -5.569031,2.607002 -8.651001,2.496002c-14.189026,0.045998 -28.383026,-0.105003 -42.572021,0.069c5.438995,-4.678001 11.209991,-10.785004 10.802002,-18.512001c-0.639008,-5.681999 -7.042999,-8.181999 -12.057983,-7.750999c-4.864014,2.535995 -8.057007,7.276001 -11.685028,11.249001c-4.415985,4.873001 -8.332001,10.257996 -13.195984,14.688995c-11.132996,0.677002 -22.351013,-0.062996 -33.515015,0.350006c7.536011,-2.298004 14.514008,-6.261002 21.101013,-10.523003c4.86499,-3.010002 6.660004,-10.721001 2.022003,-14.707001c-4.304993,-3.557999 -10.04599,-0.990997 -14.52301,0.829002c-14.376007,7 -27.703979,16.003998 -42.229004,22.722c-2.110992,0.972 -4.386993,1.641998 -6.735992,1.584999c-12.615997,0.001999 -25.233002,-0.012001 -37.85199,-0.005005l0,9.990005c4.169006,-0.021004 8.341003,0.168999 12.502991,-0.108002c-1.552002,0.482002 -3.075989,1.028999 -4.584991,1.653999c7.669006,0.713989 15.365997,0.003998 23.013,-0.612999c9.789978,-1.229012 19.695984,-1.050003 29.527985,-0.781998c2.882019,2.375999 5.386017,5.268997 8.710022,7.073006c10.321991,5.757996 22.592987,8.179993 34.280975,6.218994c8.96402,-2.23999 16.251007,-8.252014 23.794006,-13.221001c9.235992,-0.632004 18.541016,0.157997 27.791992,-0.346001c-1.553986,0.486 -3.084991,1.038002 -4.59198,1.668999c7.675995,0.716003 15.380005,0.002998 23.035004,-0.614998c9.787994,-1.225014 19.694,-1.053001 29.524994,-0.773003c2.864014,2.392998 5.377014,5.26899 8.698975,7.073997c10.313049,5.748016 22.570007,8.169006 34.246033,6.216003c8.382996,-2.229996 15.604004,-7.377998 22.46698,-12.506012c1.312988,-1.084999 3.078979,-0.900986 4.661011,-0.956985c8.640991,0.041 17.281982,0.020996 25.921997,0.024986l0,-10.000999c-5.471008,0.139999 -10.969971,-0.357986 -16.414978,0.352013l-0.830017,0.032997c-0.304993,-0.098 -0.914001,-0.292999 -1.218994,-0.391998c5.078003,-4.556 10.531006,-10.104012 10.705017,-17.400002z" id="svg_23"/>
  <path fill="black" d="m325.907715,92.972008c-4.492859,-15.295975 -7.933044,-10.280006 -13.285034,-8.193001c-7.486023,5.790001 -17.436829,13.211327 -19.210999,20.74099c-1.77417,7.529671 -3.426025,5.162994 -6.542969,4.854004c-10.493042,0.099991 -20.991028,-0.142998 -31.482056,0.106003c6.313049,-1.717003 11.960022,-5.162003 17.666016,-8.262001c4.122986,-2.261002 8.598022,-5.938011 8.17804,-11.174011c0.037964,-4.384995 -0.746033,-4.984657 -8.341003,-7.618988c-7.594971,-2.634315 -16.636108,-1.256645 -21.549072,1.345345c-11.184998,6.166 -16.114929,17.475655 -27.580933,23.119659c-2.715027,1.293983 -5.569031,2.606995 -8.651001,2.495995c-14.189056,0.046005 -28.383057,-0.105011 -42.572052,0.069c5.438995,-4.678001 11.209991,-10.785011 10.802002,-18.512001c-0.639008,-5.681999 -7.042999,-8.181999 -12.057983,-7.750999c-4.864014,2.535995 -8.057007,7.276001 -11.685028,11.249001c-4.415985,4.873001 -8.332001,10.257996 -13.195984,14.688995c-11.132996,0.67701 -22.351013,-0.062996 -33.515015,0.350006c7.536011,-2.297997 14.514008,-6.261002 21.101013,-10.523003c4.86499,-3.01001 6.660004,-10.720993 2.022003,-14.706993c-4.304993,-3.558006 -10.04599,-0.991005 -14.52301,0.828995c-14.376007,7 -27.703979,16.004005 -42.229004,22.722c-2.110992,0.972 -4.386993,1.641998 -6.735992,1.584999c-12.615997,0.001999 -25.233002,-0.012001 -37.85199,-0.005005l0,9.990005c4.169006,-0.021011 8.341003,0.168999 12.502991,-0.108002c-1.552002,0.482002 -3.075989,1.029007 -4.584991,1.654007c7.669006,0.713989 15.365997,0.00399 23.013,-0.613007c9.789978,-1.229004 19.695984,-1.050003 29.527985,-0.781998c2.882019,2.375999 5.386017,5.268997 8.710022,7.072998c10.321991,5.757996 22.592987,8.179993 34.280975,6.218994c8.96402,-2.23999 16.251007,-8.251999 23.794006,-13.220993c9.235992,-0.632011 18.541016,0.158005 27.791992,-0.346001c-1.553986,0.486 -3.084991,1.038002 -4.59198,1.668999c7.675995,0.716003 15.380005,0.002991 23.035004,-0.614998c9.788025,-1.225006 19.694031,-1.053001 29.525024,-0.772995c2.864014,2.39299 5.377014,5.26899 8.698975,7.07399c10.313049,5.748009 22.570007,8.168999 34.246033,6.215996c8.382996,-2.229996 15.604004,-7.377991 22.46698,-12.505997c1.312988,-1.084999 3.078979,-0.900993 4.661011,-0.956993c8.640991,0.041 17.281982,0.021004 25.921997,0.024994l0,-10.000999c-5.471008,0.139999 -10.969971,-0.357994 -16.414978,0.352005l-0.830017,0.033005c-0.304993,-0.098 -0.914001,-0.293007 -1.218994,-0.392006c5.078003,-4.556 15.197876,-2.104034 10.705017,-17.399994z" id="svg_24"/>
  <path fill="none" stroke="#000000" stroke-width="0.1" stroke-miterlimit="10" d="m292.239014,154.497665c-3.471008,-3.957993 -9.554016,-5.179001 -14.355042,-3.095001c-3.667969,1.478012 -6.630981,4.205002 -9.179993,7.169006c-0.972961,-2.041992 -1.768982,-4.475006 -3.917969,-5.578003c-4.022034,-2.248993 -9.05304,-1.867996 -13.100037,0.122009c-10.432983,4.903992 -19.242981,12.519989 -28.167969,19.690002c-4.190002,3.835999 -9.612976,6.584 -12.291016,11.838989c-3.237,5.468002 -2.79599,12.130005 -1.520996,18.113998c2.175995,10.531006 5.437012,20.850998 9.184021,30.919006c-5.739014,8.720993 -11.740021,17.266998 -17.291016,26.110992c-1.222992,1.884979 -2.497986,3.781006 -3.147003,5.964996c2.938019,-0.639008 4.897003,-3.054016 6.996002,-5.002014c5.876007,-6.017975 11.632996,-12.149979 17.572021,-18.105972c3.10498,7.251999 5.971008,14.654984 9.646973,21.633987c0.38501,0.229004 1.155029,0.686005 1.539001,0.914001c-1.612,-9.467987 -4.460022,-18.694 -5.620972,-28.246994c17.143982,-17.791992 34.807007,-35.084991 52.019958,-52.809998c4.61499,-4.490997 8.501038,-9.753998 11.427002,-15.496002c1.960022,-4.347 3.25,-9.981995 0.207031,-14.143005z" id="svg_25"/>
  <path fill="black" d="m292.239014,153.497665c-3.471008,-3.957993 -9.554016,-5.179001 -14.355042,-3.095001c-3.667969,1.478012 -6.630981,4.205002 -9.179993,7.169006c-0.972961,-2.041992 -1.768982,-4.475006 -3.917969,-5.578003c-4.022034,-2.248993 -9.05304,-1.867996 -13.100037,0.122009c-10.432983,4.903992 -19.242981,12.519989 -28.167969,19.690002c-4.190002,3.835999 -9.612976,6.584 -12.291016,11.838989c-3.237,5.468002 -2.79599,12.130005 -1.520996,18.113998c2.175995,10.531006 5.437012,20.850998 9.184021,30.919006c-5.739014,8.720993 -11.740021,17.266998 -17.291016,26.110992c-1.222992,1.884979 -2.497986,3.781006 -3.147003,5.964996c2.938019,-0.639008 4.897003,-3.054016 6.996002,-5.002014c5.876007,-6.017975 11.632996,-12.149979 17.572021,-18.105972c3.10498,7.251999 5.971008,14.654984 9.646973,21.633987c0.38501,0.229004 1.155029,0.686005 1.539001,0.914001c-1.612,-9.467987 -4.460022,-18.694 -5.620972,-28.246994c17.143982,-17.791992 34.807007,-35.084991 52.019958,-52.809998c4.61499,-4.490997 8.501038,-9.753998 11.427002,-15.496002c1.960022,-4.347 3.25,-9.981995 0.207031,-14.143005z" id="svg_26"/>
  <path fill="none" stroke="#000000" stroke-width="0.1" stroke-miterlimit="10" d="m151.391998,158.58667c-0.498993,-4.763992 -5.30899,-7.692993 -9.692993,-8.108994c-6.252991,-0.686005 -11.721008,3.53299 -15.490997,8.104996c-0.989014,-2.033005 -1.785004,-4.455002 -3.920013,-5.574005c-4.041992,-2.276001 -9.110992,-1.880997 -13.179993,0.131012c-10.42099,4.916 -19.22699,12.526993 -28.148987,19.696991c-4.177002,3.815994 -9.572021,6.563004 -12.246002,11.792007c-3.241028,5.464996 -2.807007,12.126999 -1.532013,18.112c2.174988,10.537994 5.437988,20.862 9.187012,30.936996c-5.738007,8.720001 -11.738007,17.265991 -17.290009,26.107971c-1.220001,1.881012 -2.472992,3.777008 -3.174011,5.934998c2.984009,-0.53598 4.904022,-3.039978 7.019012,-4.965973c5.872986,-6.020004 11.640991,-12.14299 17.562988,-18.112c3.390015,7.667007 6.196014,15.664978 10.466003,22.895996c0.800018,-1.338013 0.351013,-2.838013 0.067993,-4.226013c-1.804993,-8.105988 -3.914978,-16.16098 -4.945984,-24.416977c13.777008,-14.229004 27.843994,-28.179001 41.742981,-42.289001c5.031006,-5.225006 10.353027,-10.19101 15.063019,-15.714996c4.386993,-5.874008 9.385986,-12.528 8.511993,-20.305008z" id="svg_27"/>
  <path d="m151.391998,158.58667c-0.498993,-4.763992 -5.30899,-7.692993 -9.692993,-8.108994c-6.252991,-0.686005 -11.721008,3.53299 -15.490997,8.104996c-0.989014,-2.033005 -1.785004,-4.455002 -3.920013,-5.574005c-4.041992,-2.276001 -9.110992,-1.880997 -13.179993,0.131012c-10.42099,4.916 -19.22699,12.526993 -28.148987,19.696991c-4.177002,3.815994 -9.572021,6.563004 -12.246002,11.792007c-3.241028,5.464996 -2.807007,12.126999 -1.532013,18.112c2.174988,10.537994 5.437988,20.862 9.187012,30.936996c-5.738007,8.720001 -11.738007,17.265991 -17.290009,26.107971c-1.220001,1.881012 -2.472992,3.777008 -3.174011,5.934998c2.984009,-0.53598 4.904022,-3.039978 7.019012,-4.965973c5.872986,-6.020004 11.640991,-12.14299 17.562988,-18.112c3.390015,7.667007 6.196014,15.664978 10.466003,22.895996c0.800018,-1.338013 0.351013,-2.838013 0.067993,-4.226013c-1.804993,-8.105988 -3.914978,-16.16098 -4.945984,-24.416977c13.777008,-14.229004 27.843994,-28.179001 41.742981,-42.289001c5.031006,-5.225006 10.353027,-10.19101 15.063019,-15.714996c4.386993,-5.874008 9.385986,-12.528 8.511993,-20.305008z" id="svg_28"/>
  <path fill="none" stroke="#808080" stroke-width="0.1" stroke-miterlimit="10" d="m257.257996,174.118668c-6.888,5.146011 -14.354004,9.428009 -21.775024,13.737c-3.877991,2.238998 -7.309998,5.160004 -10.471985,8.320007c-0.018005,8.783005 0.671997,17.556992 1.708984,26.274994c9.979004,-16.229996 20.472046,-32.151001 30.538025,-48.332001z" id="svg_29"/>
  <path fill="#808080" d="m259.257996,174.118668c-6.888,5.146011 -14.354004,9.428009 -21.775024,13.737c-3.877991,2.238998 -7.309998,5.160004 -10.471985,8.320007c-0.018005,8.783005 0.671997,17.556992 1.708984,26.274994c9.979004,-16.229996 20.472046,-32.151001 30.538025,-48.332001z" id="svg_30"/>
  <path fill="none" stroke="#808080" stroke-width="0.1" stroke-miterlimit="10" d="m114.769989,174.090668c-6.681976,4.988007 -13.892975,9.194 -21.110992,13.344009c-4.036987,2.46199 -8.130981,5.201996 -11.070007,8.945999c-0.256989,8.707993 0.65802,17.418991 1.609009,26.067001c9.997009,-16.236008 20.470001,-32.182999 30.571991,-48.35701z" id="svg_31"/>
  <path fill="#808080" d="m114.769989,174.090668c-6.681976,4.988007 -13.892975,9.194 -21.110992,13.344009c-4.036987,2.46199 -8.130981,5.201996 -11.070007,8.945999c-0.256989,8.707993 0.65802,17.418991 1.609009,26.067001c9.997009,-16.236008 20.470001,-32.182999 30.571991,-48.35701z" id="svg_32"/>
 </g>
</svg>