<?xml version="1.0"?><svg width="350" height="150" xmlns="http://www.w3.org/2000/svg">
 <title>tug</title>
 <g>
  <title>Layer 1</title>
  <path fill="none" stroke="#000000" stroke-width="0.1" stroke-miterlimit="10" d="m66.694,34.938c5.834,-0.757 11.885002,1.195999 16.454002,4.834999c4.855995,3.925003 7.392998,10.081001 7.998001,16.18c-0.279007,6.198002 -2.796005,12.497997 -7.542007,16.627003c-5.806,5.022995 -14.384995,6.813995 -21.601997,3.984001c-9.489998,-3.230003 -15.718998,-13.896004 -13.91,-23.745003c1.575001,-9.167 9.343002,-16.722 18.602001,-17.881001z" id="svg_2"/>
  <path d="m66.694,34.938c5.834,-0.757 11.885002,1.195999 16.454002,4.834999c4.855995,3.925003 7.392998,10.081001 7.998001,16.18c-0.279007,6.198002 -2.796005,12.497997 -7.542007,16.627003c-5.806,5.022995 -14.384995,6.813995 -21.601997,3.984001c-9.489998,-3.230003 -15.718998,-13.896004 -13.91,-23.745003c1.575001,-9.167 9.343002,-16.722 18.602001,-17.881001z" id="svg_3"/>
  <path fill="none" stroke="#000000" stroke-width="0.1" stroke-miterlimit="10" d="m209.662003,34.944c8.209991,-1.02 17.029999,3.071999 21.145996,10.338001c3.035004,5.251999 4.371002,11.771 2.065994,17.560997c-3.077988,11.081005 -16.122986,17.824001 -26.952988,14.033001c-9.939011,-2.868996 -16.662003,-13.797001 -14.850006,-23.957001c1.542007,-9.196999 9.307999,-16.801998 18.591003,-17.974998z" id="svg_4"/>
  <path d="m209.662003,34.944c8.209991,-1.02 17.029999,3.071999 21.145996,10.338001c3.035004,5.251999 4.371002,11.771 2.065994,17.560997c-3.077988,11.081005 -16.122986,17.824001 -26.952988,14.033001c-9.939011,-2.868996 -16.662003,-13.797001 -14.850006,-23.957001c1.542007,-9.196999 9.307999,-16.801998 18.591003,-17.974998z" id="svg_5"/>
  <path fill="none" stroke="#000000" stroke-width="0.1" stroke-miterlimit="10" d="m41.785,92.972c-0.186001,-6.459 7.959999,-10.279999 13.330002,-8.193001c7.510998,5.790001 12.812,13.877998 19.274998,20.740997c1.968002,1.821007 3.437004,5.163002 6.565002,4.854004c10.528,0.099998 21.060997,-0.142998 31.586998,0.106003c-6.334,-1.717003 -12,-5.162003 -17.724998,-8.262001c-4.137001,-2.261002 -8.626999,-5.938004 -8.205002,-11.174004c-0.038002,-4.385002 4.036003,-8.020996 8.369003,-7.618996c5.612999,0.698997 10.670998,3.409996 15.600998,6.011993c11.222,6.166 22.188995,12.809006 33.692993,18.453003c2.723999,1.293999 5.588013,2.607002 8.680008,2.496002c14.237,0.045998 28.477997,-0.105003 42.714996,0.069c-5.457001,-4.678001 -11.248001,-10.785004 -10.837997,-18.512001c0.641006,-5.681999 7.065994,-8.181999 12.097992,-7.750999c4.881012,2.535995 8.084015,7.276001 11.724014,11.249001c4.431,4.873001 8.360001,10.257996 13.240997,14.688995c11.169998,0.677002 22.425995,-0.062996 33.626999,0.350006c-7.561005,-2.298004 -14.563004,-6.261002 -21.171997,-10.523003c-4.881012,-3.010002 -6.682007,-10.721001 -2.029007,-14.707001c4.320007,-3.557999 10.080002,-0.990997 14.572006,0.829002c14.423981,7 27.796997,16.003998 42.371002,22.722c2.117981,0.972 4.401001,1.641998 6.757996,1.584999c12.65799,0.001999 25.317993,-0.012001 37.979004,-0.005005l0,9.990005c-4.183014,-0.021004 -8.369019,0.168999 -12.545013,-0.108002c1.557007,0.482002 3.085999,1.028999 4.600006,1.653999c-7.694,0.713997 -15.416992,0.003998 -23.089996,-0.612999c-9.821991,-1.229004 -19.761993,-1.050003 -29.627014,-0.781998c-2.890991,2.375999 -5.403992,5.268997 -8.738983,7.072998c-10.356003,5.757996 -22.669006,8.179993 -34.396011,6.218994c-8.993988,-2.23999 -16.304993,-8.251999 -23.873001,-13.220993c-9.266998,-0.632004 -18.603989,0.157997 -27.885986,-0.346001c1.559998,0.486 3.095993,1.038002 4.607986,1.668999c-7.701996,0.716003 -15.431992,0.002998 -23.112,-0.614998c-9.820999,-1.225006 -19.759995,-1.053001 -29.623993,-0.773003c-2.874001,2.392998 -5.395004,5.268997 -8.728004,7.073997c-10.348,5.748009 -22.645996,8.168999 -34.361,6.215996c-8.410995,-2.229996 -15.655998,-7.377991 -22.542,-12.505997c-1.317997,-1.084999 -3.089996,-0.900993 -4.676998,-0.956993c-8.669998,0.041 -17.34,0.020996 -26.008999,0.024994l0,-10.000999c5.488998,0.139999 11.007,-0.357994 16.470001,0.352005l0.833,0.032997c0.306,-0.098 0.917,-0.292999 1.223,-0.391998c-5.095001,-4.556 -10.566002,-10.104004 -10.741001,-17.400002z" id="svg_6"/>
  <path fill="black" d="m41.785,92.972c-0.186001,-6.459 -2.180969,-13.983002 13.330002,-8.193001c15.510975,5.790001 12.812,13.877998 19.274998,20.740997c1.968002,1.821007 3.437004,5.163002 6.565002,4.854004c10.528,0.099998 21.060997,-0.142998 31.586998,0.106003c-6.334,-1.717003 -12,-5.162003 -17.724998,-8.262001c-4.137001,-2.261002 -8.626999,-5.938004 -8.205002,-11.174004c-0.038002,-4.385002 8.035988,-11.354317 12.368988,-10.952316c5.612999,0.698997 3.045395,-1.487335 16.934013,6.012016c13.888618,7.499352 16.855995,16.142303 28.359993,21.786301c2.723999,1.293999 5.588013,2.607002 8.680008,2.496002c14.237,0.045998 28.477997,-0.105003 42.714996,0.069c-5.457001,-4.678001 -11.248001,-10.785004 -10.837997,-18.512001c0.641006,-5.681999 7.065994,-8.181999 12.097992,-7.750999c4.881012,2.535995 8.084015,7.276001 11.724014,11.249001c4.431,4.873001 8.360001,10.257996 13.240997,14.688995c11.169998,0.677002 22.425995,-0.062996 33.626999,0.350006c-7.561005,-2.298004 -14.563004,-6.261002 -21.171997,-10.523003c-4.881012,-3.010002 -6.682007,-10.721001 -2.029007,-14.707001c4.320007,-3.557999 10.080002,-0.990997 14.572006,0.829002c14.423981,7 27.796997,16.003998 42.371002,22.722c2.117981,0.972 4.401001,1.641998 6.757996,1.584999c12.65799,0.001999 25.317993,-0.012001 37.979004,-0.005005l0,9.990005c-4.183014,-0.021004 -8.369019,0.168999 -12.545013,-0.108002c1.557007,0.482002 3.085999,1.028999 4.600006,1.653999c-7.694,0.713997 -15.416992,0.003998 -23.089996,-0.612999c-9.821991,-1.229004 -19.761993,-1.050003 -29.627014,-0.781998c-2.890991,2.375999 -5.403992,5.268997 -8.738983,7.072998c-10.356003,5.757996 -22.669006,8.179993 -34.396011,6.218994c-8.993988,-2.23999 -16.304993,-8.251999 -23.873001,-13.220993c-9.266998,-0.632004 -18.603989,0.157997 -27.885986,-0.346001c1.559998,0.486 3.095993,1.038002 4.607986,1.668999c-7.701996,0.716003 -15.431992,0.002998 -23.112,-0.614998c-9.820999,-1.225006 -19.759995,-1.053001 -29.623993,-0.773003c-2.874001,2.392998 -5.395004,5.268997 -8.728004,7.073997c-10.348,5.748009 -22.645996,8.168999 -34.361,6.215996c-8.410995,-2.229996 -15.655998,-7.377991 -22.542,-12.505997c-1.317997,-1.084999 -3.089996,-0.900993 -4.676998,-0.956993c-8.669998,0.041 -17.34,0.020996 -26.008999,0.024994l0,-10.000999c5.488998,0.139999 11.007,-0.357994 16.470001,0.352005l0.833,0.032997c0.306,-0.098 12.917,-27.626198 1.223,-0.391998c-11.694,27.234001 -10.566002,-10.104004 -10.741001,-17.400002z" id="svg_7"/>
  <path fill="none" stroke="#000000" stroke-width="0.1" stroke-miterlimit="10" d="m74.898003,153.830994c3.481995,-3.957993 9.585999,-5.179001 14.403,-3.095001c3.68,1.478012 6.653,4.205002 9.210999,7.169006c0.975998,-2.041992 1.774002,-4.475006 3.931,-5.578003c4.034996,-2.248993 9.083,-1.867996 13.143997,0.122009c10.467003,4.903992 19.306999,12.519989 28.262001,19.690002c4.203995,3.835999 9.645004,6.584 12.332001,11.838989c3.248001,5.468002 2.804993,12.130005 1.526001,18.113998c-2.182999,10.531006 -5.455002,20.850998 -9.214996,30.919006c5.759003,8.720993 11.779999,17.266998 17.348999,26.111008c1.22699,1.884979 2.507004,3.781006 3.15799,5.964996c-2.947998,-0.639008 -4.913986,-3.054016 -7.018997,-5.002014c-5.895996,-6.01799 -11.671997,-12.149994 -17.630997,-18.105988c-3.115997,7.251999 -5.990997,14.654999 -9.679993,21.634003c-0.386002,0.229004 -1.159012,0.686005 -1.544006,0.914001c1.617996,-9.468002 4.475006,-18.694016 5.639999,-28.247009c-17.201996,-17.791992 -34.923996,-35.084991 -52.194,-52.809998c-4.630997,-4.490997 -8.529999,-9.753998 -11.465996,-15.496002c-1.966003,-4.347 -3.261002,-9.981995 -0.207001,-14.143005z" id="svg_8"/>
  <path fill="black" d="m74.898003,153.830994c3.481995,-3.957993 9.585999,-5.179001 14.403,-3.095001c3.68,1.478012 6.653,4.205002 9.210999,7.169006c0.975998,-2.041992 1.774002,-4.475006 3.931,-5.578003c4.034996,-2.248993 9.083,-1.867996 13.143997,0.122009c10.467003,4.903992 19.306999,12.519989 28.262001,19.690002c4.203995,3.835999 9.645004,6.584 12.332001,11.838989c3.248001,5.468002 2.804993,12.130005 1.526001,18.113998c-2.182999,10.531006 -5.455002,20.850998 -9.214996,30.919006c5.759003,8.720993 11.779999,17.266998 17.348999,26.111008c1.22699,1.884979 2.507004,3.781006 3.15799,5.964996c-2.947998,-0.639008 -4.913986,-3.054016 -7.018997,-5.002014c-5.895996,-6.01799 -11.671997,-12.149994 -17.630997,-18.105988c-3.115997,7.251999 -5.990997,14.654999 -9.679993,21.634003c-0.386002,0.229004 -1.159012,0.686005 -1.544006,0.914001c1.617996,-9.468002 4.475006,-18.694016 5.639999,-28.247009c-17.201996,-17.791992 -34.923996,-35.084991 -52.194,-52.809998c-4.630997,-4.490997 -8.529999,-9.753998 -11.465996,-15.496002c-1.966003,-4.347 -3.261002,-9.981995 -0.207001,-14.143005z" id="svg_9"/>
  <path fill="none" stroke="#000000" stroke-width="0.1" stroke-miterlimit="10" d="m216.216995,157.919998c0.5,-4.763992 5.326004,-7.692993 9.725006,-8.108994c6.274002,-0.686005 11.759995,3.53299 15.542999,8.104996c0.992004,-2.033005 1.791,-4.455002 3.932999,-5.574005c4.056,-2.276001 9.141998,-1.880997 13.223999,0.131012c10.455994,4.916 19.291992,12.526993 28.243988,19.696991c4.19101,3.815994 9.604004,6.563004 12.287018,11.792007c3.251984,5.464996 2.81601,12.126999 1.536987,18.112c-2.181976,10.537994 -5.455994,20.862 -9.217987,30.936996c5.756989,8.720001 11.777008,17.265991 17.347992,26.107986c1.223999,1.881012 2.481018,3.777008 3.184998,5.934998c-2.993988,-0.53598 -4.92099,-3.039978 -7.042999,-4.965973c-5.893005,-6.02002 -11.679993,-12.143005 -17.622009,-18.112015c-3.40097,7.667007 -6.215973,15.664993 -10.500977,22.896011c-0.803009,-1.338013 -0.35202,-2.838013 -0.068024,-4.226013c1.811005,-8.106003 3.928009,-16.160995 4.963013,-24.416992c-13.824005,-14.229004 -27.938004,-28.179001 -41.882996,-42.289001c-5.048004,-5.225006 -10.388,-10.19101 -15.113998,-15.714996c-4.402008,-5.874008 -9.417007,-12.528 -8.540009,-20.305008z" id="svg_10"/>
  <path d="m216.216995,157.919998c0.5,-4.763992 5.326004,-7.692993 9.725006,-8.108994c6.274002,-0.686005 11.759995,3.53299 15.542999,8.104996c0.992004,-2.033005 1.791,-4.455002 3.932999,-5.574005c4.056,-2.276001 9.141998,-1.880997 13.223999,0.131012c10.455994,4.916 19.291992,12.526993 28.243988,19.696991c4.19101,3.815994 9.604004,6.563004 12.287018,11.792007c3.251984,5.464996 2.81601,12.126999 1.536987,18.112c-2.181976,10.537994 -5.455994,20.862 -9.217987,30.936996c5.756989,8.720001 11.777008,17.265991 17.347992,26.107986c1.223999,1.881012 2.481018,3.777008 3.184998,5.934998c-2.993988,-0.53598 -4.92099,-3.039978 -7.042999,-4.965973c-5.893005,-6.02002 -11.679993,-12.143005 -17.622009,-18.112015c-3.40097,7.667007 -6.215973,15.664993 -10.500977,22.896011c-0.803009,-1.338013 -0.35202,-2.838013 -0.068024,-4.226013c1.811005,-8.106003 3.928009,-16.160995 4.963013,-24.416992c-13.824005,-14.229004 -27.938004,-28.179001 -41.882996,-42.289001c-5.048004,-5.225006 -10.388,-10.19101 -15.113998,-15.714996c-4.402008,-5.874008 -9.417007,-12.528 -8.540009,-20.305008z" id="svg_11"/>
  <path fill="none" stroke="#808080" fill-opacity="0.4" stroke-width="0.1" stroke-miterlimit="10" d="m109.996002,173.451996c6.910995,5.146011 14.402,9.428009 21.847992,13.737c3.891006,2.238998 7.334,5.160004 10.507004,8.320007c0.018005,8.783005 -0.673996,17.556992 -1.714996,26.274994c-10.012009,-16.229996 -20.540001,-32.151001 -30.639999,-48.332001z" id="svg_12"/>
  <path fill="#808080" d="m109.996002,173.451996c6.910995,5.146011 14.402,9.428009 21.847992,13.737c3.891006,2.238998 7.334,5.160004 10.507004,8.320007c0.018005,8.783005 -0.673996,17.556992 -1.714996,26.274994c-10.012009,-16.229996 -20.540001,-32.151001 -30.639999,-48.332001z" id="svg_13"/>
  <path fill="none" stroke="#808080" fill-opacity="0.4" stroke-width="0.1" stroke-miterlimit="10" d="m252.960999,173.423996c6.704987,4.988007 13.940002,9.194 21.182007,13.344009c4.050995,2.46199 8.15799,5.201996 11.106995,8.945999c0.257996,8.707993 -0.660004,17.418991 -1.614014,26.067001c-10.030975,-16.236008 -20.539001,-32.182999 -30.674988,-48.35701z" id="svg_14"/>
  <path fill="#808080" d="m252.960999,173.423996c6.704987,4.988007 13.940002,9.194 21.182007,13.344009c4.050995,2.46199 8.15799,5.201996 11.106995,8.945999c0.257996,8.707993 -0.660004,17.418991 -1.614014,26.067001c-10.030975,-16.236008 -20.539001,-32.182999 -30.674988,-48.35701z" id="svg_15"/>
 </g>
</svg>